<svg xmlns="http://www.w3.org/2000/svg" xmlns:xlink="http://www.w3.org/1999/xlink" width="1080" zoomAndPan="magnify" viewBox="0 0 810 809.999993" height="1080" preserveAspectRatio="xMidYMid meet" version="1.0"><rect x="-81" width="972" fill="#ffffff" y="-80.999999" height="971.999992" fill-opacity="1"/><path fill="#a6a6a6" d="M 350.730469 340.605469 L 350.730469 318.574219 C 343.175781 317.539062 335.503906 316.890625 327.664062 316.890625 C 233.300781 316.890625 156.53125 393.660156 156.53125 488.023438 C 156.53125 545.917969 185.46875 597.152344 229.59375 628.132812 C 201.101562 597.558594 183.628906 556.589844 183.628906 511.617188 C 183.628906 418.609375 258.226562 342.75 350.730469 340.585938 Z M 350.730469 340.605469 " fill-opacity="1" fill-rule="nonzero"/><path fill="#a6a6a6" d="M 354.757812 589.800781 C 396.859375 589.800781 431.203125 556.308594 432.761719 514.59375 L 432.90625 141.972656 L 500.984375 141.972656 C 499.566406 134.316406 498.796875 126.441406 498.796875 118.382812 L 405.808594 118.382812 L 405.667969 491 C 404.109375 532.738281 369.765625 566.210938 327.664062 566.210938 C 314.582031 566.210938 302.25 562.929688 291.417969 557.238281 C 305.632812 576.921875 328.699219 589.820312 354.78125 589.820312 Z M 354.757812 589.800781 " fill-opacity="1" fill-rule="nonzero"/><path fill="#a6a6a6" d="M 628.15625 268.433594 L 628.15625 247.71875 C 602.195312 247.71875 577.996094 240.003906 557.707031 226.78125 C 575.769531 247.515625 600.3125 262.480469 628.15625 268.433594 Z M 628.15625 268.433594 " fill-opacity="1" fill-rule="nonzero"/><path fill="#f9f8f8" d="M 557.707031 226.78125 C 537.921875 204.058594 525.890625 174.394531 525.890625 141.972656 L 500.984375 141.972656 C 507.546875 177.390625 528.566406 207.785156 557.707031 226.78125 Z M 557.707031 226.78125 " fill-opacity="1" fill-rule="nonzero"/><path fill="#f9f8f8" d="M 327.664062 409.878906 C 284.574219 409.878906 249.5 444.933594 249.5 488.046875 C 249.5 518.054688 266.53125 544.136719 291.398438 557.21875 C 282.121094 544.378906 276.59375 528.648438 276.59375 511.636719 C 276.59375 468.542969 311.667969 433.472656 354.757812 433.472656 C 362.800781 433.472656 370.515625 434.808594 377.824219 437.074219 L 377.824219 342.164062 C 370.269531 341.132812 362.597656 340.484375 354.757812 340.484375 C 353.402344 340.484375 352.066406 340.566406 350.710938 340.585938 L 350.710938 413.484375 C 343.417969 411.195312 335.683594 409.878906 327.644531 409.878906 Z M 327.664062 409.878906 " fill-opacity="1" fill-rule="nonzero"/><path fill="#f9f8f8" d="M 628.15625 268.433594 L 628.15625 340.707031 C 579.941406 340.707031 535.269531 325.277344 498.796875 299.113281 L 498.796875 488.066406 C 498.796875 582.429688 422.03125 659.199219 327.664062 659.199219 C 291.195312 659.199219 257.378906 647.695312 229.59375 628.175781 C 260.859375 661.730469 305.390625 682.789062 354.78125 682.789062 C 449.144531 682.789062 525.914062 606.023438 525.914062 511.65625 L 525.914062 322.703125 C 562.382812 348.886719 607.054688 364.296875 655.269531 364.296875 L 655.269531 271.308594 C 645.976562 271.308594 636.902344 270.296875 628.175781 268.433594 Z M 628.15625 268.433594 " fill-opacity="1" fill-rule="nonzero"/><path fill="#000000" d="M 498.796875 488.046875 L 498.796875 299.09375 C 535.269531 325.277344 579.941406 340.6875 628.15625 340.6875 L 628.15625 268.414062 C 600.3125 262.460938 575.769531 247.496094 557.707031 226.757812 C 528.566406 207.765625 507.546875 177.371094 500.984375 141.953125 L 432.90625 141.953125 L 432.761719 514.574219 C 431.203125 556.308594 396.859375 589.78125 354.757812 589.78125 C 328.675781 589.78125 305.613281 576.902344 291.398438 557.199219 C 266.511719 544.097656 249.5 518.035156 249.5 488.023438 C 249.5 444.933594 284.574219 409.859375 327.664062 409.859375 C 335.703125 409.859375 343.417969 411.195312 350.730469 413.464844 L 350.730469 340.566406 C 258.226562 342.730469 183.628906 418.585938 183.628906 511.597656 C 183.628906 556.589844 201.101562 597.535156 229.59375 628.113281 C 257.398438 647.636719 291.195312 659.136719 327.664062 659.136719 C 422.03125 659.136719 498.796875 582.371094 498.796875 488.003906 Z M 498.796875 488.046875 " fill-opacity="1" fill-rule="nonzero"/></svg>